<svg width="20" height="20" viewBox="0 0 20 20" fill="none" xmlns="http://www.w3.org/2000/svg">
<path d="M10 3.33337C10.8841 3.33337 11.7319 3.68456 12.357 4.30968C12.9821 4.93481 13.3333 5.78265 13.3333 6.66671C13.3333 7.55076 12.9821 8.39861 12.357 9.02373C11.7319 9.64885 10.8841 10 10 10C9.11595 10 8.2681 9.64885 7.64298 9.02373C7.01786 8.39861 6.66667 7.55076 6.66667 6.66671C6.66667 5.78265 7.01786 4.93481 7.64298 4.30968C8.2681 3.68456 9.11595 3.33337 10 3.33337ZM10 5.00004C9.55797 5.00004 9.13405 5.17564 8.82149 5.4882C8.50893 5.80076 8.33334 6.22468 8.33334 6.66671C8.33334 7.10873 8.50893 7.53266 8.82149 7.84522C9.13405 8.15778 9.55797 8.33337 10 8.33337C10.442 8.33337 10.866 8.15778 11.1785 7.84522C11.4911 7.53266 11.6667 7.10873 11.6667 6.66671C11.6667 6.22468 11.4911 5.80076 11.1785 5.4882C10.866 5.17564 10.442 5.00004 10 5.00004ZM10 10.8334C12.225 10.8334 16.6667 11.9417 16.6667 14.1667V16.6667H3.33334V14.1667C3.33334 11.9417 7.775 10.8334 10 10.8334ZM10 12.4167C7.525 12.4167 4.91667 13.6334 4.91667 14.1667V15.0834H15.0833V14.1667C15.0833 13.6334 12.475 12.4167 10 12.4167Z" fill="#6F6F6F"/>
</svg>
