<svg width="20" height="20" viewBox="0 0 20 20" fill="none" xmlns="http://www.w3.org/2000/svg">
<path d="M9.16666 15.0001H10.8333V13.3334H9.16666V15.0001ZM10 1.66675C8.90565 1.66675 7.82201 1.8823 6.81097 2.30109C5.79992 2.71987 4.88126 3.3337 4.10744 4.10752C2.54464 5.67033 1.66666 7.78994 1.66666 10.0001C1.66666 12.2102 2.54464 14.3298 4.10744 15.8926C4.88126 16.6665 5.79992 17.2803 6.81097 17.6991C7.82201 18.1179 8.90565 18.3334 10 18.3334C12.2101 18.3334 14.3297 17.4554 15.8926 15.8926C17.4554 14.3298 18.3333 12.2102 18.3333 10.0001C18.3333 8.90573 18.1178 7.8221 17.699 6.81105C17.2802 5.80001 16.6664 4.88135 15.8926 4.10752C15.1187 3.3337 14.2001 2.71987 13.189 2.30109C12.178 1.8823 11.0943 1.66675 10 1.66675ZM10 16.6667C6.325 16.6667 3.33333 13.6751 3.33333 10.0001C3.33333 6.32508 6.325 3.33341 10 3.33341C13.675 3.33341 16.6667 6.32508 16.6667 10.0001C16.6667 13.6751 13.675 16.6667 10 16.6667ZM10 5.00008C9.11594 5.00008 8.2681 5.35127 7.64297 5.97639C7.01785 6.60151 6.66666 7.44936 6.66666 8.33341H8.33333C8.33333 7.89139 8.50892 7.46746 8.82149 7.1549C9.13405 6.84234 9.55797 6.66675 10 6.66675C10.442 6.66675 10.8659 6.84234 11.1785 7.1549C11.4911 7.46746 11.6667 7.89139 11.6667 8.33341C11.6667 10.0001 9.16666 9.79175 9.16666 12.5001H10.8333C10.8333 10.6251 13.3333 10.4167 13.3333 8.33341C13.3333 7.44936 12.9821 6.60151 12.357 5.97639C11.7319 5.35127 10.8841 5.00008 10 5.00008Z" fill="#6F6F6F"/>
</svg>
