<svg width="14" height="13" viewBox="0 0 14 13" fill="none" xmlns="http://www.w3.org/2000/svg">
	<path
			d="M5.66671 0.333252H8.33337C8.687 0.333252 9.02613 0.473728 9.27618 0.723776C9.52623 0.973825 9.66671 1.31296 9.66671 1.66659V2.99992H12.3334C12.687 2.99992 13.0261 3.14039 13.2762 3.39044C13.5262 3.64049 13.6667 3.97963 13.6667 4.33325V11.6666C13.6667 12.0202 13.5262 12.3593 13.2762 12.6094C13.0261 12.8594 12.687 12.9999 12.3334 12.9999H1.66671C0.926707 12.9999 0.333374 12.3999 0.333374 11.6666V4.33325C0.333374 3.59325 0.926707 2.99992 1.66671 2.99992H4.33337V1.66659C4.33337 0.926585 4.92671 0.333252 5.66671 0.333252ZM8.33337 2.99992V1.66659H5.66671V2.99992H8.33337Z"
			fill="#6F6F6F"/>
</svg>
