<svg width="120" height="44" viewBox="0 0 120 44" fill="none" xmlns="http://www.w3.org/2000/svg">
	<path d="M40.7081 33.0525C40.7021 33.0718 40.6938 33.0904 40.6832 33.1076C40.6859 33.0894 40.6859 33.0708 40.6832 33.0525H40.7081Z" fill="#01244A"/>
	<path d="M40.6776 33.0525H40.708C40.702 33.0718 40.6937 33.0904 40.6831 33.1076C40.684 33.0891 40.6822 33.0705 40.6776 33.0525Z" fill="#0EE08F"/>
	<path d="M39.0695 29.4757C38.7204 29.2134 38.3311 29.0084 37.9164 28.8687C38.3316 29.0073 38.7211 29.2124 39.0695 29.4757Z" fill="#D8820F"/>
	<path d="M29.2407 8.94543C29.2021 9.51967 29.1497 10.0884 29.0752 10.6463C29.1304 10.0884 29.1828 9.51967 29.2407 8.94543Z" fill="#1AE58E"/>
	<path
			d="M28.4463 42.9623C24.3996 44.2526 20.0605 44.3416 15.9634 43.2183C11.8663 42.095 8.19013 39.8084 5.3875 36.6402C4.41184 35.5359 3.55139 34.3367 2.81928 33.0608C1.54739 30.8421 0.686039 28.4158 0.275896 25.8964C0.0900399 24.7472 -0.00220972 23.5849 4.01765e-05 22.4209V22.3143C0.0032949 21.1162 0.109423 19.9206 0.317274 18.7403C0.527712 17.5223 0.844293 16.3247 1.26346 15.1609C2.21406 12.5187 3.679 10.0873 5.57508 8.0048C7.61489 5.75033 10.1113 3.94751 12.9014 2.71398C15.6916 1.48046 18.7127 0.843934 21.7678 0.845952C22.005 0.845952 22.2395 0.845952 22.4795 0.845952C20.874 1.66629 19.2189 3.00892 17.7679 4.41444C16.7451 5.4097 15.7965 6.47712 14.9293 7.6083L14.6204 8.0048C13.7607 9.11729 13.021 10.3161 12.4135 11.5815C11.8618 12.8202 11.586 14.0972 11.9722 15.1609C12.0106 15.2679 12.0567 15.3721 12.1101 15.4726C13.4894 18.0868 18.2893 16.5664 19.6906 18.754C19.7147 18.7849 19.7359 18.8178 19.7541 18.8524C20.3223 19.8587 19.8975 21.04 19.0423 22.3307C18.3279 23.4245 17.2962 24.6359 16.3197 25.9101C15.4306 27.0069 14.6751 28.2037 14.0687 29.4759C13.5633 30.5321 13.3719 31.7092 13.517 32.8693C13.517 32.9322 13.539 32.9897 13.5528 33.0526C13.7818 34.2749 14.4769 35.4917 15.4838 36.632C16.8276 38.0722 18.403 39.2818 20.1458 40.2114C22.7146 41.635 25.5302 42.5681 28.4463 42.9623Z"
			fill="#27D5E2"/>
	<path
			d="M43.5328 22.317V22.4209C43.5363 23.584 43.444 24.7454 43.2569 25.8937C43.0596 27.1111 42.754 28.309 42.3439 29.4731C41.9167 30.7141 41.3708 31.9118 40.7136 33.0498H40.6832C40.674 32.7029 40.6315 32.3577 40.5563 32.0189C40.5398 31.9204 40.5177 31.8193 40.4929 31.7236C40.4591 31.5847 40.4177 31.4478 40.3687 31.3134C40.3273 31.1824 40.2766 31.0545 40.217 30.9306C40.0571 30.561 39.8382 30.2194 39.5688 29.9188C39.4966 29.84 39.4202 29.7651 39.3398 29.6946C39.3398 29.6782 39.3177 29.6672 39.3067 29.6672C39.2348 29.5965 39.1573 29.5316 39.075 29.4731C38.7266 29.2098 38.3371 29.0047 37.9219 28.866C37.7785 28.8196 37.646 28.7785 37.486 28.7403C37.3363 28.6991 37.1843 28.6662 37.0309 28.6418C36.8764 28.6145 36.7164 28.5926 36.5537 28.5789C36.5215 28.5764 36.4892 28.5764 36.4571 28.5789C36.3357 28.5789 36.2061 28.557 36.0847 28.5516C35.5448 28.526 35.0038 28.537 34.4654 28.5844L34.1896 28.609C32.5914 28.7925 31.008 29.0848 29.4504 29.484C25.525 30.4083 21.8588 31.4775 20.8989 29.9297C20.7998 29.7934 20.7286 29.6392 20.6892 29.4758C20.6697 29.3361 20.6697 29.1944 20.6892 29.0547L20.7058 28.9371L20.7223 28.8551C20.7428 28.7513 20.7705 28.6489 20.8051 28.5488C20.8271 28.4859 20.8492 28.4285 20.874 28.3656C20.9237 28.2398 20.9871 28.1113 21.0506 27.9746C21.0864 27.9062 21.1195 27.8379 21.1609 27.7695C21.2795 27.559 21.4119 27.3375 21.5609 27.1078C21.6078 27.0339 21.6547 26.9656 21.7044 26.8917C21.9112 26.58 22.143 26.2491 22.394 25.8964C23.114 24.8874 23.9912 23.7088 24.8767 22.317C25.6066 21.1688 26.259 19.9739 26.8298 18.7403C26.9566 18.4668 27.078 18.1934 27.1966 17.9199C27.3153 17.6465 27.4339 17.3402 27.547 17.0394C27.6601 16.7387 27.7677 16.4461 27.8697 16.1343C27.9718 15.8308 28.0711 15.5191 28.1621 15.2046C28.1647 15.1975 28.1647 15.1898 28.1621 15.1827C28.2201 14.9941 28.2725 14.8027 28.3221 14.614C28.3911 14.3405 28.4601 14.0835 28.5235 13.81C28.6118 13.4245 28.6918 13.0198 28.7718 12.5987C28.7994 12.4619 28.8242 12.3252 28.8463 12.183C28.8794 11.9944 28.9097 11.8002 28.9373 11.6033C28.9787 11.3572 29.0118 11.1029 29.0421 10.8459C29.0421 10.7884 29.0587 10.7256 29.0642 10.6681C29.1387 10.1212 29.1911 9.54153 29.2297 8.96729V8.93721C29.249 8.63095 29.2656 8.33016 29.2711 8.02663C29.2766 7.72311 29.2876 7.49888 29.2876 7.23637C29.2876 7.11059 29.2876 6.97933 29.2876 6.85081C29.2876 6.59377 29.2876 6.3422 29.26 6.08789C29.26 5.96211 29.26 5.83632 29.2407 5.71054C29.2242 5.52186 29.2076 5.33591 29.1856 5.16364C29.1607 4.92027 29.1276 4.69058 29.0918 4.45815C29.0697 4.33236 29.0476 4.20931 29.0283 4.089C29.009 3.96868 28.9787 3.85383 28.9538 3.73625C28.929 3.61867 28.8987 3.50655 28.8683 3.39444C28.842 3.28076 28.8098 3.16849 28.7718 3.0581C28.7427 2.94966 28.7077 2.84287 28.6669 2.73817C28.5973 2.52114 28.5125 2.30916 28.4132 2.10377C28.3718 2.0108 28.3221 1.91509 28.2752 1.83032C33.4593 3.4535 37.8481 6.93155 40.5867 11.5869C41.2606 12.7238 41.8223 13.9225 42.2639 15.1663C42.6874 16.3292 43.0059 17.527 43.2156 18.7458C43.4205 19.9254 43.5266 21.1199 43.5328 22.317Z"
			fill="#1AE58E"/>
	<path
			d="M37.2957 41.0153C35.0889 42.8994 31.8393 43.3998 28.4463 42.9677C21.6299 42.1091 14.2232 37.4906 13.517 32.8693C12.6508 27.2855 21.6244 22.1475 19.743 18.8388C18.4217 16.5199 13.4949 18.1251 12.0991 15.4726C10.8136 13.0335 13.6825 9.25717 14.9293 7.60828C16.6231 5.37696 19.6437 2.31982 22.4795 0.856874C24.0712 0.0365328 25.6105 -0.294338 26.8215 0.30998C27.4536 0.649711 27.9622 1.17771 28.2752 1.81941C28.3221 1.90965 28.3718 2.00535 28.4132 2.09286C28.5059 2.28885 28.5878 2.48967 28.6587 2.69444C28.6945 2.79835 28.7332 2.90499 28.7635 3.01437C28.8015 3.12477 28.8337 3.23703 28.8601 3.35071C28.8904 3.46283 28.918 3.57767 28.9456 3.69252C28.9732 3.80737 28.9925 3.93042 29.02 4.04527C29.0476 4.16012 29.0614 4.28864 29.0835 4.41442C29.1194 4.64685 29.1525 4.87655 29.1773 5.11991C29.1994 5.30312 29.2159 5.48907 29.2325 5.66681C29.2325 5.79259 29.2325 5.91838 29.2518 6.04417C29.2683 6.293 29.2794 6.55004 29.2794 6.80708C29.2794 6.9356 29.2794 7.06686 29.2794 7.19264C29.2794 7.46609 29.2794 7.71766 29.2628 7.98291C29.2462 8.24815 29.2352 8.58722 29.2214 8.89349V8.92356C29.1828 9.4978 29.1304 10.0666 29.0559 10.6244C29.0559 10.6818 29.0559 10.7447 29.0338 10.8021C29.0035 11.0592 28.9649 11.3135 28.929 11.5596C28.9014 11.7565 28.8711 11.9506 28.838 12.1393C28.8104 12.2815 28.7911 12.4127 28.7635 12.5549C28.6835 12.9761 28.6035 13.3753 28.5152 13.7663C28.4518 14.0398 28.3856 14.3132 28.3139 14.5702C28.2642 14.7589 28.2118 14.9503 28.1539 15.139C28.1564 15.1461 28.1564 15.1538 28.1539 15.1609C28.0573 15.4754 27.9635 15.7871 27.8615 16.0906C27.7566 16.3969 27.649 16.7031 27.5387 16.9957C27.4284 17.2883 27.3097 17.5864 27.1884 17.8762C27.067 18.1661 26.9484 18.4231 26.8215 18.6966C26.2508 19.9302 25.5983 21.125 24.8684 22.2733C23.9912 23.6624 23.114 24.8437 22.3857 25.8527C22.1347 26.2054 21.903 26.5363 21.6961 26.848C21.6409 26.9219 21.594 26.9957 21.5526 27.064C21.4037 27.2937 21.2768 27.5152 21.1526 27.7258C21.1113 27.7942 21.0782 27.8625 21.0423 27.9309C20.9789 28.0676 20.9154 28.2043 20.8658 28.3219C20.8409 28.3848 20.8133 28.4477 20.7968 28.5051C20.7622 28.6052 20.7346 28.7075 20.714 28.8114L20.6975 28.8934L20.6809 29.011C20.6614 29.1507 20.6614 29.2924 20.6809 29.4321C20.7104 29.5901 20.7693 29.7413 20.8547 29.8778C21.823 31.4255 25.4891 30.3563 29.4062 29.4321C30.9638 29.0329 32.5473 28.7405 34.1454 28.5571L34.4213 28.5325C34.9597 28.4851 35.5007 28.4741 36.0406 28.4996C36.1675 28.4996 36.2916 28.5161 36.413 28.527C36.4451 28.5245 36.4774 28.5245 36.5095 28.527C36.6723 28.527 36.8323 28.5625 36.9868 28.5899C37.1412 28.6172 37.2929 28.6528 37.4419 28.6883C37.5909 28.7239 37.7398 28.7676 37.8778 28.8141C38.293 28.9528 38.6825 29.1578 39.0308 29.4212C39.1132 29.4796 39.1907 29.5446 39.2626 29.6153C39.2626 29.6153 39.2846 29.6153 39.2957 29.6427C39.376 29.7132 39.4525 29.7881 39.5246 29.8669C39.794 30.1675 40.0129 30.5091 40.1729 30.8786C40.2308 31.0044 40.2777 31.1302 40.3246 31.2615C40.3715 31.3927 40.4101 31.5349 40.4487 31.6716C40.4736 31.7673 40.4956 31.8685 40.5122 31.967C40.5874 32.3058 40.6299 32.651 40.6391 32.9978C40.6418 33.016 40.6418 33.0344 40.6391 33.0525C40.7936 35.8198 39.4777 39.1531 37.2957 41.0153Z"
			fill="white"/>
	<path
			d="M66.335 31.3846C65.476 32.0509 64.542 32.6161 63.5516 33.069C62.2427 33.6232 60.801 33.794 59.3972 33.5612C58.1835 33.378 56.9421 32.7846 56.3159 31.669C55.6483 30.4795 55.9214 29.0931 56.5614 27.9391C57.1131 26.9575 57.9738 26.1809 58.8483 25.4781C59.331 25.0761 59.8331 24.6988 60.3379 24.3242C60.8367 23.9859 61.3165 23.6207 61.7751 23.2304C61.9045 23.1126 62.0279 22.9885 62.1447 22.8585C60.7075 22.2159 58.691 23.1593 57.5324 24.0042C56.9035 24.4609 56.3683 25.057 55.5435 24.5867C55.3805 24.5031 55.2398 24.3823 55.1331 24.2342C55.0264 24.0862 54.9567 23.9151 54.9298 23.7351C54.9028 23.5552 54.9194 23.3714 54.9782 23.199C55.0369 23.0266 55.1361 22.8706 55.2677 22.7436C56.8299 21.2073 58.8727 20.243 61.0606 20.0092C63.2178 19.8041 65.9598 21.1248 65.2426 23.6624C64.9318 24.6117 64.3976 25.474 63.684 26.1781C62.9916 26.9219 62.2192 27.5919 61.4937 28.3028C61.0013 28.769 60.5745 29.2988 60.2248 29.8779C60.3318 29.9481 60.4518 29.9964 60.5779 30.0201C61.7537 30.2618 62.9725 30.1996 64.1171 29.8396C64.3532 29.7463 64.5811 29.6338 64.7985 29.5033C65.0666 29.3521 65.3801 29.3002 65.6832 29.3568C65.9863 29.4133 66.2593 29.5748 66.4536 29.8123C66.8039 30.217 66.8177 31.0072 66.335 31.3846Z"
			fill="#01244A"/>
	<path
			d="M74.0065 22.6943C73.7306 23.5146 73.5182 24.3651 73.3306 25.2155C73.2479 25.601 73.1706 25.9893 73.0989 26.3776C73.0575 26.5991 73.0189 26.8233 72.9858 27.0476C72.9637 27.1679 72.8148 27.9171 72.9444 27.2937C72.8072 28.1074 72.7288 28.9299 72.7099 29.7547C72.6493 30.7665 72.6162 31.9724 71.9541 32.8009C71.7985 33.0325 71.5951 33.2288 71.3573 33.3768C71.1196 33.5248 70.8529 33.6212 70.5748 33.6595C70.2898 33.7058 69.9978 33.6852 69.7223 33.5992C69.4468 33.5132 69.1955 33.3644 68.9887 33.1646C67.4383 31.472 68.0314 28.8332 68.3294 26.7741C68.578 24.9891 68.9823 23.2288 69.5376 21.513C69.7254 20.9436 70.1246 20.4663 70.6542 20.1778C71.1839 19.8894 71.8044 19.8115 72.39 19.9598C72.6785 20.032 72.9496 20.1604 73.1876 20.3375C73.4256 20.5146 73.6256 20.7369 73.7761 20.9914C73.9266 21.2459 74.0244 21.5275 74.064 21.8199C74.1035 22.1122 74.084 22.4095 74.0065 22.6943ZM75.0271 12.0299C74.8865 12.3416 74.3761 12.8748 74.3761 13.1947L74.5168 12.883C74.4313 13.1865 74.3458 13.4928 74.2575 13.7936C74.2741 13.6815 74.2934 13.5666 74.3099 13.4518C74.1716 13.9489 74.123 14.4664 74.1665 14.9804C74.2437 15.8554 74.1472 16.6429 73.2175 17.0148C72.8475 17.1678 72.4348 17.1865 72.0523 17.0674C71.6698 16.9483 71.3419 16.6992 71.1265 16.364C70.9281 16.0791 70.7798 15.7629 70.6879 15.4288C70.2324 14.4823 70.1241 13.4079 70.3817 12.3908C70.6185 11.3641 71.1859 10.4418 71.9982 9.76298C72.337 9.45473 72.7728 9.27216 73.2319 9.24624C73.691 9.22032 74.145 9.35266 74.5168 9.62079C74.8417 9.85545 75.0824 10.187 75.2037 10.5669C75.333 11.0532 75.2719 11.57 75.0327 12.0134L75.0271 12.0299ZM74.0892 14.8682C74.0892 14.9175 74.0754 14.9694 74.0699 15.0214C74.0754 14.953 74.0837 14.9011 74.0892 14.8518V14.8682Z"
			fill="#01244A"/>
	<path
			d="M90.8088 32.9569C90.387 33.2077 89.9172 33.3688 89.4292 33.4302C88.9412 33.4917 88.4457 33.452 87.974 33.3137C87.5023 33.1754 87.0647 32.9415 86.689 32.6268C86.3132 32.3122 86.0074 31.9236 85.791 31.4858C85.7055 31.3135 85.631 31.1358 85.5566 30.9553C84.1607 32.7546 82.329 34.5292 80.0063 34.7371C78.7402 34.8519 77.3223 34.4636 76.4754 33.4847C75.5789 32.4565 75.2589 31.1193 75.292 29.7822C75.3609 26.9684 76.5499 24.3925 78.3926 22.2897C79.4212 21.067 80.8851 20.2837 82.4808 20.1022C83.8931 19.949 85.4959 20.5397 86.1662 21.8522C86.3187 22.1545 86.3602 22.5 86.2837 22.8293C86.2072 23.1586 86.0174 23.4513 85.7469 23.657C85.0766 24.1519 84.1524 23.616 83.3994 23.8867C82.2794 24.2859 81.4684 25.3059 80.7953 26.2328C80.0275 27.2664 79.4478 28.425 79.0822 29.6564C78.8284 30.5588 78.8064 32.2459 80.2077 32.0299C81.2091 31.8741 82.0891 31.0483 82.7594 30.3428C83.4639 29.5687 84.0989 28.7352 84.6573 27.8517C85.7882 26.1074 86.5806 24.1692 86.9938 22.1366C87.1648 21.3163 88.3565 21.1823 88.8916 21.7292C89.4268 22.2761 89.0765 23.3042 88.8668 23.9605C88.4964 24.9915 88.2583 26.0645 88.1579 27.1544C88.0822 28.2029 88.258 29.2542 88.671 30.2224C88.9606 30.8787 89.4406 31.7784 90.2875 31.7073C90.5141 31.6851 90.7427 31.6961 90.9661 31.7401C91.7826 31.9151 91.2612 32.6807 90.8088 32.9569Z"
			fill="#01244A"/>
	<path
			d="M105.316 20.9141C102.712 21.7344 100.431 22.7544 98.4888 24.7424C96.9743 26.2928 95.5812 28.1605 94.9385 30.2469C94.4778 31.7453 94.5302 33.4735 92.4944 33.561C92.0207 33.5625 91.5589 33.4139 91.1763 33.137C90.7937 32.8601 90.5104 32.4693 90.3676 32.0215C90.1083 31.0398 90.2131 29.905 90.2572 28.8988C90.2986 27.9499 90.3924 27.0147 90.5331 26.074C90.8015 24.234 91.2137 22.4174 91.7662 20.6407C91.9106 20.2001 92.22 19.8313 92.6305 19.61C93.041 19.3888 93.5215 19.3319 93.973 19.4512C96.0088 19.8941 94.9882 22.563 94.8695 23.8919C94.8475 24.1462 94.8392 24.4033 94.8199 24.6603C95.3133 23.9898 95.8486 23.3505 96.4226 22.7462C97.5243 21.5924 98.7541 20.5659 100.089 19.6863C101.366 18.866 102.886 18.0456 104.392 17.7148C104.83 17.6005 105.296 17.6566 105.694 17.8717C106.092 18.0867 106.392 18.4444 106.533 18.8714C106.798 19.7957 106.182 20.6407 105.316 20.9141Z"
			fill="#01244A"/>
	<path
			d="M119.412 32.9569C118.991 33.2068 118.521 33.3672 118.033 33.4282C117.546 33.4891 117.051 33.4492 116.58 33.311C116.108 33.1728 115.671 32.9392 115.296 32.625C114.92 32.3109 114.614 31.923 114.397 31.4858C114.312 31.3135 114.237 31.1358 114.163 30.9553C112.767 32.7546 110.938 34.5292 108.613 34.7371C107.346 34.8519 105.929 34.4636 105.082 33.4847C104.185 32.4565 103.865 31.1193 103.898 29.7822C103.97 26.9684 105.159 24.3925 107.002 22.2897C108.029 21.0672 109.492 20.2838 111.087 20.1022C112.499 19.949 114.105 20.5397 114.773 21.8522C114.926 22.1544 114.967 22.5 114.891 22.8295C114.814 23.1589 114.624 23.4516 114.353 23.657C113.686 24.1519 112.762 23.616 112.006 23.8867C110.902 24.2859 110.075 25.3059 109.402 26.2328C108.634 27.2664 108.054 28.425 107.689 29.6564C107.435 30.5588 107.413 32.2459 108.817 32.0299C109.815 31.8741 110.695 31.0483 111.366 30.3428C112.07 29.5687 112.705 28.7352 113.264 27.8517C114.396 26.108 115.188 24.1696 115.6 22.1366C115.771 21.3163 116.963 21.1823 117.498 21.7292C118.033 22.2761 117.683 23.3042 117.473 23.9605C117.104 24.9918 116.866 26.0647 116.764 27.1544C116.688 28.2031 116.865 29.2548 117.28 30.2224C117.556 30.8787 118.047 31.7784 118.894 31.7073C119.12 31.6851 119.349 31.6961 119.572 31.7401C120.389 31.9151 119.865 32.6807 119.412 32.9569Z"
			fill="#01244A"/>
</svg>
