<svg width="1626" height="593" viewBox="0 0 1626 593" fill="none" xmlns="http://www.w3.org/2000/svg">
<path d="M1362.58 0.592498C1350.98 2.5925 1341.78 9.25917 1336.58 19.2592C1334.18 23.9258 1325.52 54.1925 1323.25 65.9258C1322.58 69.2592 1321.12 75.5258 1320.05 79.9258C1318.98 84.3258 1316.58 94.8592 1314.72 103.259C1312.85 111.659 1310.32 122.726 1309.25 127.926C1308.05 132.993 1306.32 141.793 1305.25 147.259C1304.32 152.726 1302.85 160.726 1301.92 164.993C1301.12 169.259 1299.65 177.926 1298.58 184.326C1297.65 190.726 1295.25 204.859 1293.38 215.926C1291.52 226.859 1289.38 241.793 1288.58 249.126C1287.78 256.326 1286.85 262.726 1286.45 263.393C1286.05 264.059 1285.25 274.859 1284.58 287.526C1283.92 300.193 1282.58 315.126 1281.65 320.593C1280.72 326.993 1280.05 349.126 1280.05 382.593C1279.92 426.459 1280.32 436.593 1282.18 447.259C1283.52 454.193 1285.12 463.793 1285.92 468.593C1291.38 504.059 1302.98 534.859 1317.52 553.126C1326.85 564.993 1332.32 570.059 1343.25 577.259C1361.52 589.126 1371.25 592.593 1387.25 592.593C1397.12 592.593 1399.78 592.059 1404.72 589.259C1417.65 582.059 1424.85 572.593 1427.25 559.526C1430.05 543.926 1424.45 531.393 1409.92 520.459C1386.32 502.726 1376.45 485.659 1370.45 452.593C1367.52 435.926 1366.32 376.726 1368.45 350.593C1370.05 331.926 1376.18 280.459 1377.25 276.593C1377.65 275.393 1378.45 270.326 1379.12 265.259C1380.32 256.459 1383.25 237.526 1387.78 208.459C1388.98 201.259 1390.45 193.926 1391.25 191.926C1391.92 190.059 1392.58 186.593 1392.58 184.459C1392.58 182.326 1393.38 177.126 1394.45 172.859C1396.45 165.393 1399.78 148.859 1401.92 135.926C1403.12 129.659 1404.98 120.326 1411.25 92.1925C1412.72 85.5258 1415.25 72.7258 1416.72 63.9258C1418.98 50.0592 1419.12 46.7258 1417.78 39.2592C1413.92 18.3258 1396.18 2.9925 1372.58 0.192498C1370.05 -0.207502 1365.52 0.0591651 1362.58 0.592498Z" fill="white"/>
<path d="M1165.92 31.9259C1146.72 39.5259 1131.38 58.0593 1122.18 84.5926C1118.98 93.6593 1118.72 96.4593 1118.58 115.926C1118.58 136.059 1118.85 137.793 1122.45 147.926C1130.45 170.459 1136.58 179.926 1146.58 186.059C1151.12 188.726 1153.65 189.259 1163.92 189.259C1174.85 189.259 1176.58 188.859 1182.32 185.393C1185.92 183.259 1189.65 180.326 1190.58 178.726C1194.32 172.993 1196.58 160.193 1196.58 144.593C1196.58 134.726 1197.38 126.593 1198.58 121.926C1199.78 117.926 1201.25 112.459 1201.92 109.926C1203.12 105.526 1204.58 102.326 1213.38 86.5926C1216.58 80.7259 1216.98 78.4593 1217.12 67.2593C1217.25 56.7259 1216.72 53.6593 1214.32 49.2593C1204.72 31.3926 1185.12 24.4593 1165.92 31.9259Z" fill="white"/>
<path d="M1570.98 31.6593C1561.38 35.3926 1554.45 40.9926 1545.25 52.5926C1535.12 65.2593 1533.38 68.4593 1528.05 85.126C1523.52 98.7259 1523.25 100.726 1523.25 116.859C1523.25 133.659 1523.38 134.726 1528.72 150.326C1534.18 166.326 1536.32 170.326 1543.92 178.993C1550.85 186.726 1556.98 189.259 1569.92 189.259C1578.72 189.259 1582.32 188.593 1585.92 186.593C1593.52 182.326 1597.38 178.859 1599.78 174.059C1601.65 170.459 1600.18 165.198 1602.58 165.998V146.593L1602.72 136.593C1586.32 135.793 1595.25 136.993 1599.78 146.593H1602.58L1602.72 136.593C1602.72 126.193 1605.92 111.259 1609.65 103.259C1610.85 100.726 1614.98 93.9259 1618.85 88.3259L1625.92 77.926V65.7926C1625.92 50.726 1622.98 44.7259 1611.92 37.2593C1598.72 28.4593 1584.45 26.4593 1570.98 31.6593Z" fill="white"/>
<path d="M915.917 175.259C903.517 177.792 895.917 182.059 879.25 196.059C868.984 204.592 848.717 226.459 847.384 230.326C847.117 231.259 845.784 233.392 844.584 235.259C824.717 263.792 818.717 304.859 830.984 328.726C837.384 341.259 853.517 358.326 865.917 365.659C869.25 367.659 877.117 372.192 881.25 374.459C890.984 379.926 915.784 397.392 922.184 403.392C932.584 413.259 935.25 418.192 935.25 427.659C935.25 438.459 929.917 448.459 918.717 458.992C907.25 469.659 899.917 473.792 886.85 476.859C877.65 478.992 873.25 479.259 858.45 478.592C832.317 477.126 827.25 479.659 827.25 493.926C827.25 498.992 828.317 503.392 830.584 507.926C837.25 521.659 840.584 523.659 865.384 527.926C882.05 530.859 910.05 528.592 926.584 523.126C945.65 516.592 957.117 509.792 973.917 494.726C1001.25 470.192 1012.58 437.926 1004.45 408.726C996.45 380.059 979.117 361.926 941.384 342.726C920.184 331.792 910.584 324.726 903.65 314.592C900.317 309.659 896.584 298.726 896.584 293.926C896.584 286.459 903.117 272.326 913.517 257.659C934.45 227.659 940.584 224.326 966.05 229.392C975.117 231.259 977.65 231.392 982.05 229.926C987.784 227.926 992.584 221.792 992.45 216.459C992.184 204.859 978.184 187.792 962.45 179.926C952.45 174.859 951.65 174.726 936.717 174.459C928.184 174.192 918.85 174.592 915.917 175.259Z" fill="white"/>
<path d="M625.25 224.726C609.917 226.592 602.584 228.326 593.917 232.059C562.717 245.526 544.317 262.326 519.784 299.926C512.317 311.526 496.584 341.659 496.584 344.592C496.584 345.392 495.65 347.926 494.45 350.192C483.784 370.859 478.05 439.259 485.117 461.926C492.317 485.126 505.917 503.259 523.517 513.126C536.45 520.326 546.317 522.459 567.25 522.459C587.117 522.592 595.784 520.859 611.25 513.659C618.717 510.192 635.784 500.192 637.917 497.926C638.317 497.526 641.25 495.392 644.584 493.259C651.917 488.326 670.984 469.259 678.05 459.792C684.317 451.259 688.05 449.659 691.517 454.059C692.85 455.792 694.584 458.726 695.384 460.459C701.25 474.859 723.917 491.392 743.117 495.392C754.45 497.659 775.784 496.326 784.584 492.592C798.717 486.592 807.25 477.926 807.25 469.392C807.25 464.192 803.784 462.592 790.05 461.792C774.717 460.726 770.317 458.726 762.984 449.526C753.65 437.526 747.917 423.526 743.25 401.392C738.05 375.526 740.45 354.726 754.584 307.926C756.584 301.259 759.25 290.592 760.584 284.059C762.717 273.659 762.85 271.526 761.117 266.059C757.517 253.792 746.45 248.326 732.717 251.926C722.184 254.592 717.65 258.992 715.25 268.592C714.45 271.926 713.117 276.992 712.317 279.926C711.517 282.859 710.45 287.659 709.917 290.592C708.317 299.259 704.584 312.992 702.45 317.526C701.384 319.792 700.584 322.326 700.584 323.259C700.584 324.192 699.784 326.459 698.85 328.326C697.784 330.326 695.784 334.592 694.317 337.926C685.65 356.859 674.317 377.526 666.317 388.859C663.917 392.326 661.917 395.792 661.917 396.592C661.917 397.259 661.517 397.926 660.984 397.926C660.317 397.926 657.784 401.126 655.25 404.992C652.717 408.726 650.05 412.592 649.25 413.392C648.584 414.192 644.984 418.326 641.25 422.726C632.717 432.726 617.384 448.192 610.717 453.259C607.917 455.526 604.85 457.926 603.917 458.859C600.85 461.659 586.45 467.126 579.784 467.792C571.117 468.859 565.117 466.459 560.05 460.192C555.917 454.992 555.917 454.992 555.917 438.859C555.917 423.926 556.317 421.526 560.45 409.926C568.717 386.059 583.784 359.659 601.784 337.259C615.384 320.326 627.117 309.792 638.584 304.459C644.45 301.659 647.917 301.259 665.917 300.592C688.05 299.926 691.25 298.992 697.65 292.059C702.05 287.259 704.45 272.192 702.05 263.526C699.917 255.259 691.25 244.459 680.45 236.459C667.917 227.126 644.717 222.192 625.25 224.726Z" fill="white"/>
<path d="M1136.58 248.459C1123.92 251.126 1111.92 260.726 1104.72 274.059C1101.92 279.259 1094.05 306.726 1089.25 327.926C1083.65 352.993 1081.52 363.926 1079.92 375.259C1076.72 397.526 1075.38 406.326 1073.78 415.926C1072.85 420.993 1071.92 436.859 1071.65 451.126C1071.12 472.326 1071.52 478.193 1073.25 484.459C1080.72 509.793 1091.12 522.726 1107.92 527.926C1114.85 529.926 1123.52 530.593 1124.98 528.993C1125.52 528.459 1128.58 527.126 1131.92 526.059C1143.78 521.926 1155.38 509.659 1160.05 496.326C1162.85 488.326 1165.92 468.193 1165.92 457.793C1165.92 446.059 1169.52 407.926 1171.25 401.259C1172.05 398.326 1173.52 389.926 1174.58 382.593C1176.98 364.726 1181.52 345.393 1188.72 321.926C1192.32 310.059 1192.98 305.659 1193.12 293.259C1193.25 280.326 1192.85 277.926 1190.18 272.593C1185.92 264.459 1175.78 254.326 1168.58 251.126C1162.05 248.059 1144.72 246.593 1136.58 248.459Z" fill="white"/>
<path d="M1543.92 248.059C1531.52 251.259 1520.72 258.459 1514.58 267.659C1508.98 276.193 1502.45 295.659 1496.58 321.259C1494.98 327.793 1492.98 336.593 1491.92 340.593C1490.98 344.593 1489.65 351.259 1489.25 355.259C1488.72 359.259 1487.52 365.526 1486.45 369.126C1485.38 372.726 1484.58 378.193 1484.58 381.259C1484.58 384.326 1483.78 389.793 1482.72 393.393C1481.65 396.993 1480.58 404.459 1480.05 409.926C1479.65 415.526 1478.45 424.459 1477.25 429.793C1474.32 444.059 1474.72 463.793 1478.45 480.593C1484.05 506.326 1494.98 521.659 1511.78 527.259C1523.12 530.993 1529.65 530.459 1541.25 524.726C1551.25 519.793 1557.65 512.859 1563.12 501.259C1569.25 488.193 1570.05 483.126 1572.58 443.926C1574.45 415.259 1576.18 399.393 1578.45 389.659C1579.52 385.126 1581.38 376.193 1582.58 369.926C1584.85 358.193 1591.78 329.926 1596.58 312.593C1604.05 285.393 1595.92 260.993 1575.92 250.993C1570.58 248.326 1550.18 246.459 1543.92 248.059Z" fill="white"/>
<path d="M84.0806 292.337C84.0806 292.337 84.1994 292.524 83.7752 292.664C82.2599 294.276 81.1687 295.748 80.0775 297.22C78.4502 299.989 76.8229 302.759 74.6882 305.901C73.4984 307.237 72.8161 308.199 72.1339 309.161C72.1339 309.161 72.1034 309.093 71.7754 309.097C71.0107 310.12 70.5741 311.139 70.1375 312.158C70.1375 312.158 70.0986 312.093 69.7863 312.076C65.6844 318.743 61.8947 325.428 58.105 332.113C57.4676 333.227 56.8302 334.34 55.7538 335.923C51.7552 344.36 48.0833 352.281 44.7203 360.331C43.9471 362.182 44.2345 364.475 44.0338 366.565C44.0338 366.565 44.08 366.593 43.8082 366.559C43.4077 366.63 43.2789 366.736 42.8841 366.949C42.4623 367.389 42.3065 367.724 42.0491 368.455C41.9759 369.394 42.0043 369.937 42.0327 370.479C42.0327 370.479 42.1571 370.666 41.8096 370.845C41.3136 371.366 41.1651 371.707 40.7883 372.299C40.3478 373.888 40.1355 375.226 39.6876 376.763C39.3056 377.339 39.1594 377.716 38.9225 378.491C38.896 379.426 38.96 379.963 39.0241 380.5C39.0241 380.5 39.1426 380.656 38.704 380.838C37.8815 381.905 37.3007 382.758 37.143 383.682C34.5476 398.897 31.2728 414.043 29.6464 429.363C27.8261 446.51 29.7351 463.564 35.177 480.434C35.4489 482.286 35.7556 483.772 36.1884 485.87C34.8361 485.05 33.9768 484.53 32.9447 483.718C31.1944 480.979 29.6168 478.532 27.9889 475.834C27.6798 475.377 27.4211 475.17 27.1678 475.014C27.1731 475.065 27.2109 474.97 27.1794 474.638C26.5263 473.445 25.9047 472.586 25.2648 471.552C25.2465 471.378 25.0709 471.075 25.0235 470.805C24.734 470.268 24.4918 470.001 24.2242 469.56C24.1987 469.386 24.0046 469.093 23.9869 468.754C23.0943 467.155 22.2194 465.896 21.325 464.368C21.1646 463.772 21.0236 463.445 20.8954 462.802C20.3996 461.853 19.8911 461.221 19.391 460.444C19.3993 460.298 19.2406 460.054 19.1745 459.766C18.8469 459.19 18.5856 458.902 18.1768 458.367C17.6862 458.124 17.343 458.129 16.9998 458.133C16.9998 458.133 17.0742 458.083 17.2503 457.769C17.2694 456.674 17.1125 455.893 16.9751 454.747C16.0319 452.274 15.0691 450.166 14.0494 447.804C13.7546 447.305 13.5166 447.059 13.2596 446.623C13.2406 446.431 13.1017 446.073 13.1009 445.803C13.0134 445.376 12.9269 445.218 12.8338 444.783C12.575 444.027 12.3226 443.549 12.0427 442.802C11.793 442.254 11.5708 441.975 11.3523 441.525C11.356 441.355 11.2127 441.044 11.2069 440.644C8.54573 431.114 5.89032 421.984 3.24515 412.653C3.25539 412.451 3.13281 412.065 3.1488 411.809C3.09972 411.396 3.03467 411.238 2.96897 410.747C2.8518 409.987 2.73527 409.561 2.70775 408.734C1.85913 398.967 0.476144 389.618 0.109149 380.229C-0.257723 370.843 0.391684 361.417 0.710499 351.609C0.878122 349.825 0.930834 348.441 1.23532 346.758C3.34759 337.398 5.22708 328.34 7.05472 319.27C7.49001 317.11 7.75204 314.916 8.09377 312.737C7.97592 312.477 7.93566 312.205 8.34006 311.616C8.90519 310.738 9.10327 310.166 9.60389 309.385C10.6931 306.841 11.4798 304.506 12.3276 302.008C12.3887 301.845 12.3456 301.5 12.6392 301.301C13.3623 299.779 13.7918 298.456 14.4107 296.918C14.7549 296.154 14.9096 295.605 15.3412 294.877C15.8251 293.854 16.0322 293.009 16.1654 292.135C16.0915 292.106 16.221 292.197 16.502 292.012C17.2273 290.58 17.6716 289.332 18.266 287.836C18.7155 286.878 19.0148 286.17 19.6106 285.295C20.3106 284.111 20.7141 283.095 21.1937 281.928C21.2696 281.777 21.2708 281.439 21.4929 281.269C21.8476 280.761 21.9803 280.422 22.1908 279.93C22.2686 279.777 22.3124 279.437 22.6143 279.282C24.168 276.752 25.4199 274.378 26.7955 271.785C26.9751 271.409 27.031 271.252 27.3081 271.01C27.8228 270.721 27.9346 270.444 27.9666 269.892C28.0687 269.69 28.1438 269.244 28.3777 269.121C28.7637 268.691 28.9159 268.383 29.1543 267.935C29.2406 267.793 29.2404 267.461 29.4665 267.285C29.839 266.764 29.9852 266.419 30.2127 265.95C30.2939 265.826 30.2671 265.531 30.5211 265.352C30.9493 264.806 31.1235 264.439 31.377 263.972C31.4562 263.871 31.4007 263.622 31.6644 263.493C32.2711 262.927 32.6141 262.489 33.0479 261.885C33.1388 261.719 33.1898 261.343 33.4207 261.198C33.8112 260.735 33.9707 260.418 34.1036 260.09C34.077 260.08 34.1078 260.128 34.3307 260.031C34.8292 259.719 34.9633 259.435 35.062 258.927C35.168 258.769 35.2272 258.393 35.473 258.192C35.7865 257.588 35.8541 257.185 35.9217 256.783C35.9217 256.783 36.0858 256.904 36.3493 256.889C37.4429 255.613 38.273 254.352 39.0918 253.083C39.0805 253.075 39.0959 253.097 39.3917 252.958C40.5047 251.576 41.322 250.333 42.2282 248.969C42.317 248.848 42.3363 248.549 42.6477 248.412C44.0367 246.893 45.1143 245.51 46.4419 243.989C47.1515 243.254 47.6113 242.658 48.3764 241.949C49.5746 240.631 50.4676 239.427 51.5493 238.12C51.972 237.831 52.1276 237.595 52.52 237.212C53.6134 236.125 54.3914 235.131 55.1295 234.11C55.0895 234.083 55.148 234.16 55.4789 234.091C58.6313 231.099 61.4528 228.177 64.1882 225.165C64.102 225.074 64.2627 225.264 64.5643 225.2C65.3338 224.506 65.8016 223.877 66.2102 223.228C66.151 223.209 66.2758 223.261 66.6114 223.213C68.7736 221.528 70.6002 219.893 72.6612 218.139C73.2855 217.672 73.6754 217.322 74.3859 216.954C75.7793 215.969 76.852 215.001 78.1303 213.887C78.588 213.518 78.84 213.296 79.3674 212.97C79.7457 212.512 79.8486 212.158 79.9515 211.804C79.9515 211.804 79.9196 211.917 80.237 211.984C87.3807 207.671 94.2069 203.292 101.389 198.897C108.875 195.505 116.03 192.178 123.113 188.703C124.265 188.138 125.095 186.915 126.074 185.996C126.074 185.996 126.097 186.069 126.461 186.201C128.271 186.017 129.725 185.735 131.16 185.379C144.455 182.08 157.678 178.445 171.068 175.59C178.271 174.054 185.759 173.849 193.537 173.083C195.352 173.06 196.75 172.998 198.514 173.012C199.623 173.038 200.367 172.988 201.551 173.003C204.369 173.078 206.746 173.09 209.441 173.351C215.214 174.051 220.669 174.5 226.457 175.011C227.241 175.067 227.692 175.062 228.437 175.309C230.824 175.937 232.913 176.333 235.01 176.683C241.744 177.805 248.481 178.91 255.217 180.022C255.217 180.022 255.155 180.061 255.246 180.397C256.297 180.827 257.256 180.921 258.215 181.015C258.215 181.015 258.149 181.068 258.113 181.403C265.491 184.52 272.905 187.302 280.32 190.083C282.205 190.866 284.091 191.648 286.324 193.004C289.527 194.729 292.381 195.881 295.236 197.033C295.236 197.033 295.168 197.063 295.175 197.378C300.201 200.472 305.22 203.251 310.24 206.03C310.24 206.03 310.171 206.063 310.153 206.379C313.506 208.808 316.878 210.921 320.25 213.034C320.25 213.034 320.182 213.062 320.197 213.33C320.561 213.752 320.911 213.906 321.26 214.061C321.26 214.061 321.174 214.072 321.242 214.304C321.575 215.026 321.839 215.517 322.103 216.007C323.487 216.358 324.87 216.708 326.92 217.249C334.767 224.74 341.949 232.041 349.131 239.341C353.07 244.328 357.009 249.315 361.105 254.924C361.596 255.716 361.93 255.886 362.263 256.056C362.263 256.056 362.19 256.054 362.129 256.387C364.721 261.034 367.309 265.391 370.048 269.65C371.956 272.615 374.073 275.447 376.096 278.338C376.096 278.338 376.258 278.489 376.155 278.991C378.799 285.957 381.49 292.446 384.34 298.864C384.889 300.1 386.063 301.058 386.948 302.145C386.948 302.145 387.141 302.442 386.843 302.848C389.957 317.178 393.669 331.036 396.652 345.05C398.183 352.243 398.412 359.713 399.2 367.527C399.098 373.331 399.026 378.667 398.743 384.346C396.632 407.33 392.12 429.349 383.118 450.333C381.567 453.948 380.455 457.752 379.14 461.469C379.14 461.469 379.259 461.657 378.832 461.81C376.267 465.956 374.13 469.95 372.079 473.942C372.166 473.942 371.996 473.908 371.681 474.014C369.311 476.427 367.255 478.734 365.012 480.815C364.277 480.419 363.73 480.248 363.057 479.968C362.932 479.859 362.599 479.853 362.415 479.643C361.88 479.33 361.529 479.226 360.807 478.961C357.348 478.555 354.261 478.31 350.894 477.866C344.188 476.771 337.762 475.875 331.337 474.979C330.538 474.67 329.74 474.362 328.401 473.683C325.178 470.223 322.407 467.204 319.848 464.014C318.353 462.15 317.198 460.013 316.146 457.888C316.023 457.164 315.643 456.552 315.274 455.72C315.285 455.499 315.186 455.069 315.163 454.794C314.912 454.238 314.682 453.957 314.451 453.507C314.448 453.338 314.289 453.041 314.266 452.663C312.513 448.558 310.784 444.831 309.031 440.769C308.856 440.018 308.704 439.602 308.655 438.847C307.988 436.9 307.218 435.291 306.423 433.41C306.301 432.784 306.203 432.432 306.123 431.677C304.94 427.049 303.74 422.825 302.565 418.355C302.579 417.778 302.533 417.452 302.62 416.839C302.198 413.394 301.608 410.242 301.036 406.654C300.901 404.209 300.747 402.2 300.746 399.734C300.752 392.861 300.604 386.443 300.481 379.652C300.538 378.037 300.57 376.795 300.847 375.383C301.174 374.157 301.257 373.099 301.389 371.77C301.439 371.13 301.44 370.762 301.665 370.121C301.971 368.925 302.053 368.002 302.205 366.753C302.259 365.987 302.243 365.546 302.454 364.841C302.785 363.424 302.89 362.271 303.088 360.789C303.183 360.001 303.183 359.544 303.411 358.909C303.647 358.181 303.656 357.632 303.809 356.756C303.963 355.956 303.973 355.484 304.195 354.686C304.74 352.285 305.073 350.21 305.639 347.86C308.023 339.106 310.174 330.627 312.392 321.983C312.457 321.818 312.412 321.465 312.651 321.188C314.022 317.299 315.153 313.687 316.343 309.906C316.402 309.739 316.362 309.386 316.591 309.157C316.958 308.312 317.097 307.695 317.318 306.739C317.297 305.958 317.194 305.517 317.419 305.121C318.057 304.435 318.365 303.705 318.818 302.674C319.006 301.931 319.049 301.489 319.361 300.785C320.209 293.263 320.788 286.002 321.392 278.407C321.324 277.407 321.23 276.742 321.155 275.82C321.114 275.401 321.053 275.24 320.981 274.71C320.814 273.88 320.658 273.418 320.582 272.804C320.592 272.391 320.42 272.262 320.149 272.206C320.148 272.146 320.043 272.088 320.069 271.766C319.446 270.675 318.797 269.905 317.892 268.923C315.873 267.113 314.11 265.517 312.347 263.921C311.178 263.376 310.01 262.831 308.472 261.739C301.346 257.432 290.55 258.272 286.019 262.911C283.734 265.031 281.448 267.152 278.726 269.696C276.481 276.535 274.634 282.94 272.908 289.378C272.666 290.283 273.023 291.348 273.102 292.338C272.114 295.953 271.126 299.567 269.727 303.674C268.145 307.402 266.981 310.64 265.803 313.873C262.243 323.638 258.678 333.401 255.115 343.165C252.143 349.964 249.17 356.764 245.91 364.058C245.578 364.869 245.4 365.065 245.09 365.141C245.09 365.141 245.127 365.033 244.884 365.219C243.65 367.105 242.522 368.741 241.693 370.515C239.291 375.655 237.009 380.85 234.68 386.023C234.68 386.023 234.654 386.076 234.296 386.073C233.634 386.366 233.331 386.662 233.054 386.97C233.082 386.982 233.036 386.975 232.788 387.132C232.343 387.824 232.146 388.359 231.925 388.89C231.902 388.886 231.861 388.86 231.56 389.002C227.561 395.122 223.861 401.1 219.898 407.28C215.466 413.347 211.298 419.211 206.825 425.214C205.643 426.84 204.766 428.327 203.982 429.879C204.075 429.944 203.866 429.853 203.532 429.948C202.526 431.411 201.855 432.78 201.183 434.149C201.183 434.149 201.137 434.08 200.823 434.015C198.412 436.342 196.314 438.734 194.182 441.103C194.148 441.078 194.18 441.157 193.892 441.265C193.418 441.935 193.232 442.497 192.933 443.261C192.625 443.71 192.382 443.895 191.752 444.059C189.663 446.455 187.915 448.81 186.167 451.166C186.167 451.166 186.134 451.096 185.818 451.052C185.056 451.725 184.611 452.443 184.165 453.161C184.165 453.161 184.137 453.089 183.821 453.052C179.376 457.07 175.246 461.125 171.117 465.18C171.178 465.543 171.05 465.817 170.182 466.073C169.141 466.721 168.651 467.298 168.162 467.876C160.198 473.825 152.547 480.303 142.728 483.151C141.209 483.591 139.619 483.784 137.218 484.096C131.957 484.407 127.54 484.714 122.812 484.793C117.901 484.198 113.666 483.273 112.236 477.677C111.895 477.207 111.646 476.976 111.327 476.488C110.957 475.799 110.658 475.366 110.316 474.536C109.13 469.446 107.987 464.754 106.86 459.714C106.677 457.992 106.477 456.619 106.421 455.105C106.461 454.62 106.356 454.276 106.285 453.553C106.528 451.149 106.737 449.123 107.058 446.734C107.171 445.612 107.173 444.854 107.225 443.8C107.298 443.104 107.32 442.704 107.578 442.022C107.946 440.529 108.077 439.318 108.217 437.753C108.185 436.93 108.143 436.46 108.102 435.991C109.073 432.873 110.045 429.756 111.496 426.169C113.277 422.561 114.79 419.491 115.826 416.268C117.11 412.275 117.998 408.154 119.211 403.779C123.32 396.091 127.275 388.712 131.566 381.243C135.797 375.621 139.748 370.126 143.566 364.54C145.599 361.564 147.401 358.43 149.298 355.332C149.288 355.298 149.239 355.244 149.492 355.158C149.918 354.772 150.092 354.471 150.222 354.192C150.18 354.212 150.267 354.248 150.566 354.169C151.248 353.415 151.63 352.738 152.197 351.871C152.659 351.238 152.937 350.795 153.451 350.203C153.872 349.74 154.057 349.427 154.496 348.969C155.182 348.192 155.615 347.559 156.357 346.832C157.487 345.521 158.309 344.304 159.124 343.081C159.117 343.076 159.127 343.089 159.405 342.993C160.12 342.283 160.559 341.669 161.101 340.906C161.206 340.756 161.284 340.399 161.599 340.274C163.323 338.463 164.733 336.777 166.13 335.083C166.119 335.075 166.133 335.098 166.462 335.056C167.572 334.037 168.354 333.061 169.129 332.081C169.123 332.076 169.13 332.091 169.465 332.035C178.556 324.129 187.596 316.702 198.725 312.335C199.086 312.194 199.246 311.539 199.5 311.123C199.5 311.123 199.651 311.001 200.194 311.091C206.698 310.91 212.66 310.425 218.623 310.427C225.408 310.43 232.208 311.259 238.977 311.026C248.858 310.686 258.848 301.016 260.369 290.92C260.433 290.773 260.348 290.465 260.611 290.156C260.704 283.738 260.663 277.62 260.227 271.53C260.161 270.612 258.25 269.826 257.083 268.626C254.364 263.872 251.754 259.471 249.064 254.829C248.712 254.406 248.44 254.222 248.16 254.06C248.152 254.08 248.183 254.046 248.122 253.739C247.422 252.982 246.783 252.532 245.926 251.867C244.63 250.722 243.552 249.79 242.334 248.638C241.893 248.249 241.593 248.082 241.301 247.985C241.31 248.055 241.326 247.915 241.248 247.614C240.494 246.915 239.818 246.516 238.985 246.022C238.827 245.927 238.464 245.863 238.312 245.644C237.847 245.272 237.533 245.121 237.238 245.002C237.257 245.034 237.253 244.959 237.152 244.618C235.058 243.564 233.065 242.852 231.072 242.14C231.072 242.14 231.138 242.08 231.187 241.745C230.178 240.981 229.12 240.553 228.062 240.125C228.062 240.125 228.124 240.089 228.014 239.77C227.197 239.318 226.49 239.184 225.783 239.05C225.783 239.05 225.558 239.149 225.395 238.712C221.831 237.219 218.43 236.163 215.028 235.106C214.575 235.092 214.121 235.078 213.201 234.804C212.435 234.472 212.211 234.301 212.064 234.03C212.064 234.03 212.175 234.053 211.959 233.795C201.349 232.753 190.964 231.582 180.559 231.369C176.095 231.277 171.59 233.177 167.103 234.172C167.103 234.172 167.076 234.064 167.042 234.24C166.72 234.471 166.489 234.616 166.316 234.852C163.226 235.592 160.137 236.332 156.249 237.02C153.247 237.973 151.046 238.978 148.844 239.983C148.844 239.983 148.688 240.14 148.172 240.023C143.807 241.677 139.958 243.449 136.109 245.22C128.047 250.755 119.984 256.291 111.255 261.95C110.104 262.772 109.619 263.468 109.135 264.165C109.135 264.165 109.113 264.096 108.847 264.112C108.429 264.471 108.278 264.815 108.126 265.159C108.126 265.159 108.121 265.086 107.802 265.062C107.037 265.744 106.59 266.452 106.144 267.16C106.144 267.16 106.147 267.083 105.823 267.041C105.048 267.719 104.595 268.44 104.143 269.161C104.143 269.161 104.108 269.096 103.834 269.097C103.418 269.451 103.274 269.803 103.131 270.156C103.131 270.156 103.119 270.082 102.794 270.034C101.693 271.046 100.917 272.105 100.14 273.164C100.14 273.164 100.114 273.092 99.8081 273.052C98.6525 273.984 97.8024 274.956 96.9489 275.955C96.9455 275.982 96.9905 275.952 96.7506 276.06C96.3356 276.464 96.1605 276.76 95.7815 277.247C95.0892 277.994 94.6008 278.549 93.844 279.225C93.3467 279.87 93.1177 280.394 92.9254 281.002C92.9621 281.086 92.923 280.908 92.6874 280.998C92.2809 281.37 92.11 281.651 92.001 282.01C92.0628 282.088 91.951 281.926 91.7124 282.028C91.2902 282.416 91.1066 282.702 90.636 283.165C89.3 284.917 88.251 286.492 87.2019 288.067C86.5109 288.94 85.8199 289.813 84.8489 291.163C84.5911 292.002 84.4283 292.234 84.0806 292.337Z" fill="#51C4D4"/>
<path d="M105.167 549.117C102.552 548.026 99.938 546.934 97.119 545.197C95.79 543.971 94.6657 543.392 93.363 542.57C92.8238 542.168 92.4631 542.008 91.7136 541.811C91.0809 541.865 90.837 541.956 90.5931 542.047C90.5931 542.047 90.5467 542.138 90.6785 541.887C90.7938 541.438 90.7773 541.239 90.8527 540.719C92.1558 540.137 93.4076 539.537 94.571 539.677C99.1273 540.222 103.656 541.001 108.413 541.724C108.929 541.78 109.214 541.731 109.77 541.884C110.847 542.361 111.631 542.686 112.433 542.741C129.768 543.926 146.298 540.418 162.283 533.971C163.463 533.495 164.265 532.082 165.243 531.104C165.243 531.104 165.429 530.943 165.93 531.156C172.578 528.186 178.802 525.138 184.83 521.743C186.824 520.62 188.313 518.601 190.033 516.991C190.033 516.991 190.062 517.064 190.381 517.173C193.803 514.518 196.907 511.754 200.011 508.99C200.011 508.99 200.076 509.062 200.339 509.232C201.17 509.004 201.737 508.606 202.566 508.08C203.642 507.153 204.457 506.355 205.606 505.448C207.717 503.618 209.493 501.898 211.471 500.089C211.93 499.829 212.097 499.594 212.492 499.197C213.959 497.815 215.107 496.531 216.18 495.166C216.105 495.086 216.23 495.266 216.535 495.198C217.346 494.491 217.851 493.853 218.635 493.116C219.665 492.106 220.416 491.195 221.468 490.19C222.263 489.451 222.757 488.806 223.496 488.024C224.196 487.315 224.65 486.743 225.327 486.051C225.697 485.639 225.846 485.348 226.259 484.927C227.095 484.022 227.666 483.247 228.483 482.33C228.908 481.864 229.087 481.54 229.224 481.244C229.182 481.271 229.279 481.295 229.572 481.208C230.3 480.464 230.736 479.807 231.126 479.119C231.08 479.088 231.145 479.178 231.445 479.099C232.187 478.372 232.63 477.725 233.342 476.943C234.071 476.165 234.53 475.522 235.263 474.781C235.801 474.178 236.066 473.673 236.52 473.06C236.946 472.755 237.086 472.504 237.42 472.058C238.416 470.939 239.122 469.963 240.113 468.847C241.346 467.306 242.295 465.905 243.492 464.345C243.933 463.847 244.125 463.508 244.63 463.114C245.566 463.098 246.19 463.137 246.863 463.521C247.557 465.076 248.203 466.287 248.834 467.654C248.819 467.811 248.989 468.076 248.988 468.43C249.57 469.741 250.152 470.698 250.686 471.793C250.638 471.931 250.788 472.182 250.821 472.548C252.645 475.636 254.435 478.359 256.226 481.081C263.287 491.553 272.483 499.685 283.87 506.375C288.893 508.611 293.477 510.369 298.398 512.293C311.931 516.25 325.111 516.229 338.232 512.158C339.301 511.826 340.135 510.737 341.079 510C341.079 510 341.058 510.067 341.333 510.241C342.127 511.653 342.648 512.891 343.168 514.129C343.168 514.129 343.108 514.104 342.815 513.832C341.562 514.737 340.603 515.914 339.645 517.09C339.645 517.09 339.586 517.107 339.161 516.933C338.196 517.56 337.655 518.361 337.115 519.163C337.115 519.163 337.081 519.081 336.782 518.911C334.358 520.88 332.234 523.02 330.109 525.159C330.109 525.159 330.074 525.086 329.782 524.958C329.017 525.283 328.544 525.736 328.071 526.189C319.414 532.517 311.101 539.402 301.999 545.008C293.468 550.264 284.391 554.93 275.029 558.468C263.647 562.769 251.716 565.617 239.158 569.01C231.548 569.891 224.802 570.856 217.588 571.834C203.745 571.925 190.37 572.005 176.995 572.084C175.886 572.091 174.777 572.098 173.142 571.655C168.027 570.488 163.439 569.77 158.85 569.053C148.451 566.053 138.053 563.054 127.153 559.638C119.49 555.853 112.328 552.485 105.167 549.117Z" fill="#61BD85"/>
</svg>
