<svg width="200" height="74" viewBox="0 0 200 74" fill="none" xmlns="http://www.w3.org/2000/svg">
	<path d="M67.8471 55.5506C67.8372 55.5828 67.8232 55.6137 67.8057 55.6425C67.8102 55.612 67.8102 55.5811 67.8057 55.5506H67.8471Z" fill="#01244A"/>
	<path d="M67.7959 55.5506H67.8465C67.8366 55.5828 67.8227 55.6137 67.8051 55.6425C67.8066 55.6116 67.8035 55.5806 67.7959 55.5506Z" fill="#0EE08F"/>
	<path d="M65.1156 49.5392C64.5339 49.0984 63.885 48.7539 63.1938 48.519C63.8858 48.752 64.535 49.0967 65.1156 49.5392Z" fill="#D8820F"/>
	<path d="M48.7344 15.0343C48.67 15.9994 48.5826 16.9553 48.4585 17.8929C48.5504 16.9553 48.6378 15.9994 48.7344 15.0343Z" fill="#1AE58E"/>
	<path
			d="M47.4104 72.2056C40.6659 74.3743 33.4342 74.5239 26.6057 72.6359C19.7772 70.748 13.6502 66.905 8.97916 61.5802C7.35307 59.7244 5.91899 57.7088 4.69881 55.5644C2.57899 51.8354 1.1434 47.7576 0.459826 43.5235C0.150066 41.5919 -0.00368286 39.6385 6.69608e-05 37.6823V37.503C0.00549149 35.4895 0.182371 33.48 0.52879 31.4964C0.87952 29.4493 1.40715 27.4365 2.10576 25.4805C3.6901 21.0398 6.13166 16.9534 9.2918 13.4535C12.6915 9.66442 16.8522 6.63447 21.5024 4.56131C26.1526 2.48815 31.1879 1.41837 36.2797 1.42176C36.6751 1.42176 37.0658 1.42176 37.4658 1.42176C34.79 2.80049 32.0315 5.057 29.6132 7.41922C27.9086 9.09194 26.3274 10.8859 24.8822 12.7871L24.3673 13.4535C22.9344 15.3232 21.7017 17.3379 20.6892 19.4647C19.7697 21.5466 19.31 23.6928 19.9536 25.4805C20.0177 25.6604 20.0945 25.8355 20.1835 26.0045C22.4823 30.398 30.4821 27.8428 32.8177 31.5194C32.8577 31.5713 32.8931 31.6266 32.9234 31.6848C33.8705 33.3761 33.1625 35.3614 31.7372 37.5306C30.5465 39.3689 28.827 41.4048 27.1994 43.5465C25.7177 45.3898 24.4584 47.4013 23.4478 49.5393C22.6055 51.3145 22.2865 53.2928 22.5283 55.2427C22.5283 55.3484 22.565 55.4449 22.588 55.5506C22.9696 57.6049 24.1282 59.65 25.8063 61.5664C28.046 63.987 30.6716 66.0199 33.5763 67.5823C37.8577 69.9749 42.5503 71.5432 47.4104 72.2056Z"
			fill="#27D5E2"/>
	<path
			d="M72.5546 37.5076V37.6823C72.5604 39.6371 72.4066 41.5891 72.0948 43.5189C71.7659 45.5651 71.2567 47.5782 70.573 49.5347C69.8611 51.6205 68.9512 53.6334 67.8558 55.546H67.8053C67.7899 54.9631 67.7191 54.3829 67.5938 53.8134C67.5662 53.6479 67.5294 53.4779 67.488 53.317C67.4318 53.0836 67.3627 52.8535 67.2811 52.6277C67.212 52.4076 67.1275 52.1926 67.0283 51.9843C66.7617 51.3632 66.3969 50.7891 65.9478 50.2838C65.8276 50.1514 65.7002 50.0256 65.5662 49.907C65.5662 49.8794 65.5295 49.861 65.5111 49.861C65.3913 49.7421 65.2621 49.633 65.1249 49.5347C64.5442 49.0922 63.8951 48.7475 63.2031 48.5145C62.964 48.4363 62.7433 48.3674 62.4767 48.3031C62.2271 48.2338 61.9738 48.1786 61.7181 48.1376C61.4606 48.0917 61.1939 48.0549 60.9227 48.0319C60.8691 48.0277 60.8153 48.0277 60.7618 48.0319C60.5595 48.0319 60.3434 47.9952 60.1411 47.986C59.2413 47.943 58.3396 47.9615 57.4423 48.0411L56.9825 48.0825C54.319 48.3908 51.6799 48.8822 49.0839 49.5531C42.5415 51.1065 36.4313 52.9034 34.8313 50.3022C34.6663 50.0731 34.5476 49.8139 34.4819 49.5393C34.4494 49.3045 34.4494 49.0664 34.4819 48.8316L34.5095 48.634L34.5371 48.4961C34.5713 48.3216 34.6174 48.1496 34.675 47.9814C34.7118 47.8757 34.7486 47.7792 34.79 47.6735C34.8727 47.462 34.9785 47.246 35.0842 47.0163C35.144 46.9014 35.1992 46.7865 35.2681 46.6716C35.4658 46.3177 35.6865 45.9454 35.9348 45.5594C36.0129 45.4353 36.0911 45.3204 36.1738 45.1963C36.5187 44.6724 36.9049 44.1163 37.3232 43.5235C38.5232 41.8277 39.9852 39.8469 41.4611 37.5076C42.6776 35.5779 43.765 33.5697 44.7162 31.4964C44.9277 31.0368 45.13 30.5772 45.3276 30.1177C45.5253 29.6581 45.723 29.1434 45.9115 28.6378C46.1 28.1323 46.2794 27.6405 46.4495 27.1166C46.6196 26.6065 46.7851 26.0826 46.9368 25.5541C46.941 25.5422 46.941 25.5292 46.9368 25.5173C47.0334 25.2002 47.1207 24.8785 47.2035 24.5614C47.3184 24.1018 47.4333 23.6698 47.5391 23.2102C47.6862 22.5622 47.8195 21.8821 47.9529 21.1743C47.9989 20.9445 48.0402 20.7147 48.077 20.4758C48.1322 20.1587 48.1828 19.8324 48.2287 19.5015C48.2977 19.0878 48.3529 18.6604 48.4034 18.2284C48.4034 18.1319 48.431 18.0262 48.4402 17.9297C48.5644 17.0106 48.6517 16.0363 48.7161 15.0712V15.0206C48.7483 14.5059 48.7758 14.0003 48.785 13.4902C48.7942 12.9801 48.8126 12.6032 48.8126 12.162C48.8126 11.9506 48.8126 11.73 48.8126 11.514C48.8126 11.082 48.8126 10.6592 48.7666 10.2318C48.7666 10.0204 48.7666 9.80902 48.7345 9.59761C48.7069 9.2805 48.6793 8.96799 48.6425 8.67846C48.6011 8.26944 48.546 7.88339 48.4862 7.49275C48.4494 7.28135 48.4126 7.07454 48.3805 6.87233C48.3483 6.67011 48.2977 6.47709 48.2563 6.27948C48.2149 6.08186 48.1644 5.89343 48.1138 5.70501C48.0699 5.51394 48.0162 5.32526 47.9529 5.13973C47.9044 4.95748 47.846 4.77799 47.7782 4.60202C47.662 4.23726 47.5207 3.881 47.3552 3.53581C47.2862 3.37955 47.2035 3.2187 47.1253 3.07623C55.7654 5.80426 63.0801 11.6497 67.6444 19.4739C68.7677 21.3846 69.7038 23.3992 70.4397 25.4897C71.1456 27.4441 71.6764 29.4573 72.0259 31.5056C72.3675 33.4883 72.5443 35.4958 72.5546 37.5076Z"
			fill="#1AE58E"/>
	<path
			d="M62.1597 68.9334C58.4816 72.0999 53.0656 72.9409 47.4106 72.2148C36.05 70.7717 23.7054 63.0095 22.5284 55.2427C21.0848 45.8581 36.0408 37.2227 32.9052 31.6618C30.703 27.7646 22.4917 30.4623 20.1653 26.0044C18.0228 21.905 22.8043 15.5583 24.8824 12.7871C27.7053 9.03691 32.7397 3.89886 37.466 1.44013C40.1188 0.0613998 42.6843 -0.494687 44.7026 0.520975C45.7562 1.09195 46.6038 1.97934 47.1256 3.05783C47.2037 3.20949 47.2865 3.37034 47.3554 3.51741C47.51 3.84681 47.6466 4.18432 47.7646 4.52848C47.8244 4.70311 47.8888 4.88235 47.9393 5.06618C48.0027 5.25172 48.0564 5.44039 48.1002 5.63146C48.1508 5.81988 48.1968 6.01291 48.2428 6.20593C48.2887 6.39895 48.3209 6.60576 48.3669 6.79878C48.4129 6.9918 48.4359 7.2078 48.4727 7.41921C48.5324 7.80985 48.5876 8.19589 48.629 8.60491C48.6657 8.91283 48.6933 9.22534 48.7209 9.52406C48.7209 9.73547 48.7209 9.94687 48.7531 10.1583C48.7807 10.5765 48.7991 11.0085 48.7991 11.4405C48.7991 11.6565 48.7991 11.8771 48.7991 12.0885C48.7991 12.5481 48.7991 12.9709 48.7715 13.4167C48.7439 13.8625 48.7255 14.4323 48.7025 14.9471V14.9976C48.6382 15.9627 48.5508 16.9186 48.4267 17.8562C48.4267 17.9527 48.4267 18.0584 48.3899 18.1549C48.3393 18.5869 48.275 19.0143 48.2152 19.4279C48.1692 19.7588 48.1186 20.0851 48.0635 20.4022C48.0175 20.6412 47.9853 20.8618 47.9393 21.1008C47.806 21.8085 47.6727 22.4795 47.5255 23.1367C47.4198 23.5963 47.3095 24.0558 47.1899 24.4879C47.1072 24.805 47.0198 25.1267 46.9233 25.4438C46.9275 25.4557 46.9275 25.4686 46.9233 25.4805C46.7623 26.009 46.606 26.533 46.4359 27.0431C46.2612 27.5578 46.0819 28.0725 45.898 28.5643C45.7141 29.056 45.5164 29.557 45.3141 30.0441C45.1118 30.5313 44.9141 30.9633 44.7026 31.4228C43.7514 33.4962 42.664 35.5043 41.4475 37.4341C39.9855 39.7687 38.5235 41.7541 37.3097 43.4499C36.8913 44.0428 36.5051 44.5989 36.1603 45.1228C36.0684 45.2469 35.9902 45.371 35.9212 45.4859C35.673 45.8719 35.4615 46.2442 35.2546 46.598C35.1856 46.7129 35.1304 46.8278 35.0707 46.9427C34.9649 47.1725 34.8592 47.4023 34.7764 47.5999C34.7351 47.7056 34.6891 47.8113 34.6615 47.9078C34.6038 48.0761 34.5578 48.248 34.5236 48.4226L34.496 48.5604L34.4684 48.758C34.4358 48.9928 34.4358 49.231 34.4684 49.4658C34.5175 49.7313 34.6157 49.9854 34.758 50.2149C36.3718 52.8161 42.482 51.0192 49.0106 49.4658C51.6066 48.7949 54.2457 48.3035 56.9092 47.9951L57.369 47.9538C58.2663 47.8741 59.168 47.8557 60.0678 47.8986C60.2793 47.8986 60.4862 47.9262 60.6884 47.9446C60.742 47.9403 60.7958 47.9403 60.8494 47.9446C61.1206 47.9446 61.3873 48.0043 61.6447 48.0503C61.9022 48.0963 62.1551 48.156 62.4034 48.2157C62.6516 48.2755 62.8999 48.349 63.1298 48.4271C63.8217 48.6602 64.4709 49.0048 65.0516 49.4474C65.1888 49.5457 65.318 49.6548 65.4378 49.7737C65.4378 49.7737 65.4745 49.7737 65.4929 49.8197C65.6269 49.9382 65.7543 50.064 65.8745 50.1965C66.3236 50.7017 66.6884 51.2759 66.955 51.8969C67.0515 52.1083 67.1297 52.3198 67.2078 52.5404C67.286 52.7609 67.3504 52.9999 67.4147 53.2297C67.4561 53.3906 67.4929 53.5606 67.5205 53.7261C67.6458 54.2956 67.7166 54.8757 67.732 55.4587C67.7365 55.4891 67.7365 55.5201 67.732 55.5506C67.9894 60.2015 65.7964 65.8037 62.1597 68.9334Z"
			fill="white"/>
	<path
			d="M110.558 52.7473C109.127 53.8671 107.57 54.8171 105.919 55.5782C103.738 56.5096 101.335 56.7967 98.9955 56.4055C96.9725 56.0976 94.9036 55.1003 93.8599 53.2252C92.7473 51.2261 93.2025 48.896 94.2691 46.9566C95.1887 45.3067 96.6231 44.0015 98.0805 42.8204C98.8851 42.1448 99.7219 41.5106 100.563 40.881C101.395 40.3124 102.194 39.6987 102.959 39.0427C103.174 38.8448 103.38 38.6362 103.575 38.4177C101.179 37.3377 97.8185 38.9232 95.8875 40.3433C94.8392 41.1108 93.9473 42.1127 92.5726 41.3222C92.3009 41.1817 92.0665 40.9787 91.8886 40.7299C91.7108 40.481 91.5946 40.1935 91.5497 39.891C91.5048 39.5885 91.5325 39.2797 91.6304 38.99C91.7283 38.7003 91.8937 38.438 92.1129 38.2247C94.7166 35.6425 98.1212 34.0219 101.768 33.6289C105.363 33.2842 109.933 35.504 108.738 39.7688C108.22 41.3643 107.329 42.8135 106.14 43.9969C104.986 45.247 103.699 46.3729 102.49 47.5678C101.669 48.3513 100.958 49.2417 100.375 50.215C100.553 50.3329 100.753 50.4142 100.963 50.454C102.923 50.8602 104.954 50.7558 106.862 50.1506C107.255 49.9938 107.635 49.8048 107.998 49.5854C108.444 49.3313 108.967 49.244 109.472 49.3391C109.977 49.4343 110.432 49.7055 110.756 50.1047C111.34 50.7849 111.363 52.113 110.558 52.7473Z"
			fill="white"/>
	<path
			d="M123.344 38.1418C122.884 39.5205 122.53 40.9498 122.217 42.3791C122.079 43.0271 121.951 43.6797 121.831 44.3323C121.762 44.7045 121.698 45.0814 121.643 45.4582C121.606 45.6604 121.358 46.9197 121.574 45.8719C121.345 47.2395 121.214 48.6218 121.183 50.008C121.082 51.7085 121.027 53.7352 119.923 55.1277C119.664 55.517 119.325 55.8469 118.929 56.0956C118.532 56.3444 118.088 56.5063 117.624 56.5708C117.149 56.6486 116.663 56.6138 116.204 56.4694C115.744 56.3249 115.326 56.0747 114.981 55.7389C112.397 52.8942 113.385 48.4593 113.882 44.9987C114.296 41.9986 114.97 39.0402 115.896 36.1564C116.209 35.1994 116.874 34.3972 117.757 33.9125C118.64 33.4277 119.674 33.2967 120.65 33.546C121.131 33.6674 121.582 33.8831 121.979 34.1808C122.376 34.4784 122.709 34.852 122.96 35.2797C123.211 35.7075 123.374 36.1808 123.44 36.6722C123.506 37.1636 123.473 37.6631 123.344 38.1418ZM125.045 20.2183C124.81 20.7423 123.96 21.6384 123.96 22.1761L124.194 21.6522C124.052 22.1623 123.909 22.6771 123.762 23.1826C123.79 22.9942 123.822 22.8012 123.85 22.6081C123.619 23.4437 123.538 24.3134 123.61 25.1772C123.739 26.6478 123.578 27.9714 122.029 28.5964C121.412 28.8536 120.724 28.8849 120.087 28.6848C119.449 28.4847 118.903 28.066 118.544 27.5026C118.213 27.0237 117.966 26.4923 117.813 25.9309C117.054 24.3401 116.873 22.5344 117.303 20.825C117.697 19.0995 118.643 17.5493 119.997 16.4085C120.561 15.8904 121.288 15.5835 122.053 15.54C122.818 15.4964 123.575 15.7188 124.194 16.1695C124.736 16.5639 125.137 17.1211 125.339 17.7596C125.555 18.5769 125.453 19.4455 125.054 20.1908L125.045 20.2183ZM123.482 24.9887C123.482 25.0715 123.459 25.1588 123.45 25.2461C123.459 25.1312 123.473 25.0439 123.482 24.9612V24.9887Z"
			fill="white"/>
	<path
			d="M151.348 55.3896C150.645 55.811 149.862 56.0819 149.049 56.1851C148.236 56.2883 147.41 56.2216 146.623 55.9892C145.837 55.7568 145.108 55.3637 144.482 54.8349C143.855 54.3061 143.346 53.653 142.985 52.9171C142.843 52.6276 142.719 52.3288 142.594 52.0255C140.268 55.0495 137.215 58.0322 133.344 58.3815C131.234 58.5745 128.871 57.9219 127.459 56.2766C125.965 54.5486 125.432 52.3013 125.487 50.0539C125.602 45.3249 127.583 40.9957 130.654 37.4616C132.369 35.4065 134.809 34.09 137.468 33.785C139.822 33.5276 142.493 34.5203 143.61 36.7262C143.865 37.2343 143.934 37.8149 143.806 38.3684C143.679 38.9219 143.362 39.4137 142.912 39.7594C141.794 40.5913 140.254 39.6905 138.999 40.1455C137.132 40.8165 135.781 42.5307 134.659 44.0886C133.379 45.8258 132.413 47.773 131.804 49.8425C131.381 51.3591 131.344 54.1947 133.68 53.8317C135.349 53.5697 136.815 52.1818 137.932 50.9961C139.107 49.6951 140.165 48.2942 141.096 46.8093C142.981 43.8779 144.301 40.6203 144.99 37.2042C145.275 35.8255 147.261 35.6003 148.153 36.5194C149.045 37.4386 148.461 39.1666 148.111 40.2696C147.494 42.0023 147.097 43.8057 146.93 45.6374C146.804 47.3996 147.097 49.1666 147.785 50.7939C148.268 51.8968 149.068 53.4088 150.479 53.2894C150.857 53.2521 151.238 53.2707 151.61 53.3445C152.971 53.6386 152.102 54.9254 151.348 55.3896Z"
			fill="white"/>
	<path
			d="M175.527 35.1498C171.187 36.5286 167.385 38.2428 164.148 41.5839C161.624 44.1897 159.302 47.3286 158.231 50.8352C157.463 53.3536 157.55 56.2582 154.157 56.4052C153.368 56.4077 152.598 56.158 151.961 55.6926C151.323 55.2271 150.851 54.5703 150.613 53.8178C150.18 52.1679 150.355 50.2607 150.429 48.5695C150.498 46.9747 150.654 45.403 150.889 43.822C151.336 40.7295 152.023 37.6764 152.944 34.6903C153.184 33.9499 153.7 33.33 154.384 32.9581C155.068 32.5862 155.869 32.4907 156.622 32.6911C160.015 33.4356 158.314 37.9211 158.116 40.1546C158.079 40.582 158.065 41.014 158.033 41.446C158.856 40.319 159.748 39.2446 160.704 38.229C162.541 36.2898 164.59 34.5647 166.815 33.0863C168.943 31.7076 171.477 30.3289 173.987 29.7728C174.717 29.5808 175.494 29.6751 176.157 30.0365C176.82 30.3979 177.32 30.999 177.555 31.7168C177.996 33.2702 176.971 34.6903 175.527 35.1498Z"
			fill="white"/>
	<path
			d="M199.021 55.3896C198.318 55.8096 197.535 56.0793 196.723 56.1817C195.91 56.2841 195.085 56.217 194.299 55.9847C193.514 55.7524 192.785 55.3598 192.159 54.8318C191.533 54.3039 191.024 53.6519 190.662 52.9171C190.52 52.6276 190.396 52.3288 190.272 52.0255C187.945 55.0495 184.897 58.0322 181.021 58.3815C178.911 58.5745 176.548 57.9219 175.136 56.2766C173.642 54.5486 173.109 52.3013 173.164 50.0539C173.284 45.3249 175.265 40.9957 178.336 37.4616C180.049 35.4068 182.487 34.0902 185.145 33.785C187.499 33.5276 190.175 34.5203 191.288 36.7262C191.543 37.2341 191.612 37.8149 191.485 38.3687C191.357 38.9224 191.04 39.4143 190.589 39.7594C189.476 40.5913 187.936 39.6905 186.676 40.1455C184.837 40.8165 183.458 42.5307 182.336 44.0886C181.057 45.8258 180.09 47.773 179.481 49.8425C179.058 51.3591 179.021 54.1947 181.361 53.8317C183.026 53.5697 184.492 52.1818 185.61 50.9961C186.784 49.6951 187.842 48.2942 188.773 46.8093C190.66 43.8789 191.981 40.621 192.667 37.2042C192.952 35.8255 194.938 35.6003 195.83 36.5194C196.722 37.4386 196.138 39.1666 195.789 40.2696C195.174 42.0029 194.777 43.8061 194.607 45.6374C194.48 47.4001 194.775 49.1676 195.467 50.7939C195.927 51.8968 196.745 53.4088 198.157 53.2894C198.534 53.2521 198.915 53.2707 199.288 53.3445C200.648 53.6386 199.775 54.9254 199.021 55.3896Z"
			fill="white"/>
</svg>
